<svg width="1440" height="768" viewBox="0 0 1440 768" fill="none" xmlns="http://www.w3.org/2000/svg">
<path d="M1014 336L910.077 396V516L1014 576L1117.92 516V396L1014 336Z" fill="#0F053C"/>
<path d="M1121 146L1017.08 206V326L1121 386L1224.92 326V206L1121 146Z" fill="#0F053C"/>
<path d="M1338 147L1234.08 207V327L1338 387L1441.92 327V207L1338 147Z" fill="#0F053C"/>
<path d="M1229 -42L1125.08 18V138L1229 198L1332.92 138V18L1229 -42Z" fill="#0F053C"/>
<path d="M1121 528L1017.08 588V708L1121 768L1224.92 708V588L1121 528Z" fill="#0F053C"/>
<path d="M1448 336L1344.08 396V516L1448 576L1551.92 516V396L1448 336Z" fill="#0F053C"/>
<path d="M902 528L798.077 588V708L902 768L1005.92 708V588L902 528Z" fill="#0F053C"/>
<path d="M1229 336L1125.08 396V516L1229 576L1332.92 516V396L1229 336Z" fill="#0F053C"/>
<path d="M97 314L-6.92305 254V134L97 74L200.923 134V254L97 314Z" fill="#0F053C"/>
<path d="M206 504L102.077 444V324L206 264L309.923 324V444L206 504Z" fill="#0F053C"/>
<path d="M426 504L322.077 444V324L426 264L529.923 324V444L426 504Z" fill="#0F053C"/>
<path d="M316 696L212.077 636V516L316 456L419.923 516V636L316 696Z" fill="#0F053C"/>
<path d="M643 504L539.077 444V324L643 264L746.923 324V444L643 504Z" fill="#0F053C"/>
<path d="M-12 126L-115.923 66V-54L-12 -114L91.923 -54V66L-12 126Z" fill="#0F053C"/>
<path d="M314 314L210.077 254V134L314 74L417.923 134V254L314 314Z" fill="#0F053C"/>
</svg>
