<svg width="1440" height="1120" viewBox="0 0 1440 1120" fill="none" xmlns="http://www.w3.org/2000/svg">
<path d="M987 692L883.077 752V872L987 932L1090.92 872V752L987 692Z" fill="#0F053C"/>
<path d="M1097 505L993.077 565V685L1097 745L1200.92 685V565L1097 505Z" fill="#0F053C"/>
<path d="M1314 504L1210.08 564V684L1314 744L1417.92 684V564L1314 504Z" fill="#0F053C"/>
<path d="M1207 304L1103.08 364V484L1207 544L1310.92 484V364L1207 304Z" fill="#0F053C"/>
<path d="M1533 504L1429.08 564V684L1533 744L1636.92 684V564L1533 504Z" fill="#0F053C"/>
<path d="M1097 880L993.077 940V1060L1097 1120L1200.92 1060V940L1097 880Z" fill="#0F053C"/>
<path d="M1424 692L1320.08 752V872L1424 932L1527.92 872V752L1424 692Z" fill="#0F053C"/>
<path d="M878 880L774.077 940V1060L878 1120L981.923 1060V940L878 880Z" fill="#0F053C"/>
<path d="M1205 692L1101.08 752V872L1205 932L1308.92 872V752L1205 692Z" fill="#0F053C"/>
<path d="M99 312L-4.92305 252V132L99 72L202.923 132V252L99 312Z" fill="#0F053C"/>
<path d="M206 504L102.077 444V324L206 264L309.923 324V444L206 504Z" fill="#0F053C"/>
<path d="M426 504L322.077 444V324L426 264L529.923 324V444L426 504Z" fill="#0F053C"/>
<path d="M316 696L212.077 636V516L316 456L419.923 516V636L316 696Z" fill="#0F053C"/>
<path d="M648 504L544.077 444V324L648 264L751.923 324V444L648 504Z" fill="#0F053C"/>
<path d="M-13 120L-116.923 60V-60L-13 -120L90.923 -60V60L-13 120Z" fill="#0F053C"/>
<path d="M314 312L210.077 252V132L314 72L417.923 132V252L314 312Z" fill="#0F053C"/>
</svg>
