<svg width="1440" height="768" viewBox="0 0 1440 768" fill="none" xmlns="http://www.w3.org/2000/svg"><path d="M1014 336l-103.923 60v120L1014 576l103.92-60V396L1014 336zm107-190l-103.92 60v120L1121 386l103.92-60V206L1121 146zm217 1l-103.92 60v120L1338 387l103.92-60V207L1338 147zM1229-42l-103.92 60v120L1229 198l103.92-60V18L1229-42zm-108 570l-103.92 60v120L1121 768l103.92-60V588L1121 528zm327-192l-103.92 60v120L1448 576l103.92-60V396L1448 336zM902 528l-103.923 60v120L902 768l103.92-60V588L902 528zm327-192l-103.92 60v120L1229 576l103.92-60V396L1229 336zM97 314L-6.923 254V134L97 74l103.923 60v120L97 314zm109 190l-103.923-60V324L206 264l103.923 60v120L206 504zm220 0l-103.923-60V324L426 264l103.923 60v120L426 504zM316 696l-103.923-60V516L316 456l103.923 60v120L316 696zm327-192l-103.923-60V324L643 264l103.923 60v120L643 504zM-12 126l-103.923-60V-54L-12-114 91.923-54V66L-12 126zm326 188l-103.923-60V134L314 74l103.923 60v120L314 314z" fill="#0F053C"/></svg>