<svg width="1440" height="1417" viewBox="0 0 1440 1417" fill="none" xmlns="http://www.w3.org/2000/svg"><path d="M850 317l-103.923 60v120L850 557l103.923-60V377L850 317zm110-192l-103.923 60v120L960 365l103.92-60V185L960 125zm220 0l-103.92 60v120L1180 365l103.92-60V185L1180 125zm220 0l-103.92 60v120L1400 365l103.92-60V185L1400 125zM1070-68L966.077-8v120L1070 172l103.92-60V-8L1070-68zM960 510l-103.923 60v120L960 750l103.92-60V570L960 510zm-220 0l-103.923 60v120L740 750l103.923-60V570L740 510zm550-193l-103.92 60v120L1290 557l103.92-60V377L1290 317zm-220 0l-103.923 60v120L1070 557l103.92-60V377L1070 317zm-748 715l103.923-60V852L322 792l-103.923 60v120L322 1032zm-110 192l103.923-60v-120L212 984l-103.923 60v120L212 1224zm-220 0l103.923-60v-120L-8 984l-103.923 60v120L-8 1224zm110 193l103.923-60v-120L102 1177l-103.923 60v120L102 1417zm110-578l103.923-60V659L212 599l-103.923 60v120L212 839zm220 0l103.923-60V659L432 599l-103.923 60v120L432 839zm-330 193l103.923-60V852L102 792-1.923 852v120L102 1032z" fill="#0F053C"/></svg>