<svg width="1440" height="1120" viewBox="0 0 1440 1120" fill="none" xmlns="http://www.w3.org/2000/svg"><path d="M987 692l-103.923 60v120L987 932l103.92-60V752L987 692zm110-187l-103.923 60v120L1097 745l103.92-60V565L1097 505zm217-1l-103.92 60v120L1314 744l103.92-60V564L1314 504zm-107-200l-103.92 60v120L1207 544l103.92-60V364L1207 304zm326 200l-103.92 60v120L1533 744l103.92-60V564L1533 504zm-436 376l-103.923 60v120L1097 1120l103.92-60V940L1097 880zm327-188l-103.92 60v120L1424 932l103.92-60V752L1424 692zM878 880l-103.923 60v120L878 1120l103.923-60V940L878 880zm327-188l-103.92 60v120L1205 932l103.92-60V752L1205 692zM99 312L-4.923 252V132L99 72l103.923 60v120L99 312zm107 192l-103.923-60V324L206 264l103.923 60v120L206 504zm220 0l-103.923-60V324L426 264l103.923 60v120L426 504zM316 696l-103.923-60V516L316 456l103.923 60v120L316 696zm332-192l-103.923-60V324L648 264l103.923 60v120L648 504zM-13 120l-103.923-60V-60L-13-120 90.923-60V60L-13 120zm327 192l-103.923-60V132L314 72l103.923 60v120L314 312z" fill="#0F053C"/></svg>