<svg width="1440" height="1579" viewBox="0 0 1440 1579" fill="none" xmlns="http://www.w3.org/2000/svg"><path d="M433 192l103.923 60v120L433 432l-103.923-60V252L433 192zM103 0l103.923 60v120L103 240-.923 180V60L103 0zm220 384l103.923 60v120L323 624l-103.923-60V444L323 384zM-7 192l103.923 60v120L-7 432l-103.923-60V252L-7 192zm550 192l103.923 60v120L543 624l-103.923-60V444L543 384zM213 192l103.923 60v120L213 432l-103.923-60V252L213 192zm552 812l-103.923-60V824L765 764l103.923 60v120L765 1004zm327 192l-103.923-60v-120L1092 956l103.92 60v120L1092 1196zM872 812l-103.923-60V632L872 572l103.923 60v120L872 812zm327 192l-103.92-60V824L1199 764l103.92 60v120L1199 1004zM653 812l-103.923-60V632L653 572l103.923 60v120L653 812zm327 192l-103.923-60V824L980 764l103.92 60v120L980 1004zm334-49l103.92 60v120L1314 1195l-103.92-60v-120L1314 955zm220 384l103.92 60v120L1534 1579l-103.92-60v-120l103.92-60zm-330-192l103.92 60v120L1204 1387l-103.92-60v-120l103.92-60zm220 0l103.92 60v120L1424 1387l-103.92-60v-120l103.92-60z" fill="#0F053C"/></svg>