<svg width="1440" height="1579" viewBox="0 0 1440 1579" fill="none" xmlns="http://www.w3.org/2000/svg">
<path d="M433 192L536.923 252L536.923 372L433 432L329.077 372L329.077 252L433 192Z" fill="#0F053C"/>
<path d="M103 2.09815e-05L206.923 60L206.923 180L103 240L-0.923081 180L-0.92306 60L103 2.09815e-05Z" fill="#0F053C"/>
<path d="M323 384L426.923 444L426.923 564L323 624L219.077 564L219.077 444L323 384Z" fill="#0F053C"/>
<path d="M-7 192L96.923 252L96.923 372L-7.00004 432L-110.923 372L-110.923 252L-7 192Z" fill="#0F053C"/>
<path d="M543 384L646.923 444L646.923 564L543 624L439.077 564L439.077 444L543 384Z" fill="#0F053C"/>
<path d="M213 192L316.923 252L316.923 372L213 432L109.077 372L109.077 252L213 192Z" fill="#0F053C"/>
<path d="M765 1004L661.077 944V824L765 764L868.923 824V944L765 1004Z" fill="#0F053C"/>
<path d="M1092 1196L988.077 1136V1016L1092 956L1195.92 1016V1136L1092 1196Z" fill="#0F053C"/>
<path d="M872 812L768.077 752V632L872 572L975.923 632V752L872 812Z" fill="#0F053C"/>
<path d="M1199 1004L1095.08 944V824L1199 764L1302.92 824V944L1199 1004Z" fill="#0F053C"/>
<path d="M653 812L549.077 752V632L653 572L756.923 632V752L653 812Z" fill="#0F053C"/>
<path d="M980 1004L876.077 944V824L980 764L1083.92 824V944L980 1004Z" fill="#0F053C"/>
<path d="M1314 955L1417.92 1015L1417.92 1135L1314 1195L1210.08 1135L1210.08 1015L1314 955Z" fill="#0F053C"/>
<path d="M1534 1339L1637.92 1399L1637.92 1519L1534 1579L1430.08 1519L1430.08 1399L1534 1339Z" fill="#0F053C"/>
<path d="M1204 1147L1307.92 1207L1307.92 1327L1204 1387L1100.08 1327L1100.08 1207L1204 1147Z" fill="#0F053C"/>
<path d="M1424 1147L1527.92 1207L1527.92 1327L1424 1387L1320.08 1327L1320.08 1207L1424 1147Z" fill="#0F053C"/>
</svg>
