<svg width="1440" height="1417" viewBox="0 0 1440 1417" fill="none" xmlns="http://www.w3.org/2000/svg">
<path d="M850 317L746.077 377V497L850 557L953.923 497V377L850 317Z" fill="#0F053C"/>
<path d="M960 125L856.077 185V305L960 365L1063.92 305V185L960 125Z" fill="#0F053C"/>
<path d="M1180 125L1076.08 185V305L1180 365L1283.92 305V185L1180 125Z" fill="#0F053C"/>
<path d="M1400 125L1296.08 185V305L1400 365L1503.92 305V185L1400 125Z" fill="#0F053C"/>
<path d="M1070 -68L966.077 -8V112L1070 172L1173.92 112V-8L1070 -68Z" fill="#0F053C"/>
<path d="M960 510L856.077 570V690L960 750L1063.92 690V570L960 510Z" fill="#0F053C"/>
<path d="M740 510L636.077 570V690L740 750L843.923 690V570L740 510Z" fill="#0F053C"/>
<path d="M1290 317L1186.08 377V497L1290 557L1393.92 497V377L1290 317Z" fill="#0F053C"/>
<path d="M1070 317L966.077 377V497L1070 557L1173.92 497V377L1070 317Z" fill="#0F053C"/>
<path d="M322 1032L425.923 972V852L322 792L218.077 852V972L322 1032Z" fill="#0F053C"/>
<path d="M212 1224L315.923 1164V1044L212 984L108.077 1044V1164L212 1224Z" fill="#0F053C"/>
<path d="M-8 1224L95.923 1164V1044L-8 984L-111.923 1044V1164L-8 1224Z" fill="#0F053C"/>
<path d="M102 1417L205.923 1357V1237L102 1177L-1.92305 1237V1357L102 1417Z" fill="#0F053C"/>
<path d="M212 839L315.923 779V659L212 599L108.077 659V779L212 839Z" fill="#0F053C"/>
<path d="M432 839L535.923 779V659L432 599L328.077 659V779L432 839Z" fill="#0F053C"/>
<path d="M102 1032L205.923 972V852L102 792L-1.92305 852V972L102 1032Z" fill="#0F053C"/>
</svg>
