<svg width="24" height="24" viewBox="0 0 24 24" fill="none" xmlns="http://www.w3.org/2000/svg">
<g clip-path="url(#clip0_0_205)">
<mask id="mask0_0_205" style="mask-type:luminance" maskUnits="userSpaceOnUse" x="0" y="0" width="24" height="24">
<path d="M24 0H0V24H24V0Z" fill="white"/>
</mask>
<g mask="url(#mask0_0_205)">
<path d="M15.6918 4.56866L13.7273 4.56543C11.5207 4.56543 10.0943 6.02863 10.0943 8.29332V10.0122H8.11946C8.07889 10.0122 8.03872 10.0202 8.00124 10.0357C7.96376 10.0512 7.92971 10.074 7.90102 10.1026C7.87234 10.1313 7.84959 10.1654 7.83406 10.2029C7.81854 10.2403 7.81055 10.2805 7.81055 10.3211V12.8114C7.81055 12.8933 7.84309 12.9719 7.90102 13.0298C7.95896 13.0878 8.03753 13.1203 8.11946 13.1203H10.0946V19.404C10.0946 19.486 10.1271 19.5645 10.1851 19.6225C10.243 19.6804 10.3216 19.7129 10.4035 19.7129H12.9803C13.0623 19.7129 13.1408 19.6804 13.1988 19.6225C13.2567 19.5645 13.2892 19.486 13.2892 19.404V13.1193H15.5972C15.6378 13.1193 15.6779 13.1113 15.7154 13.0958C15.7529 13.0803 15.7869 13.0575 15.8156 13.0289C15.8443 13.0002 15.8671 12.9661 15.8826 12.9286C15.8981 12.8912 15.9061 12.851 15.9061 12.8104V10.3201C15.906 10.2382 15.8734 10.1597 15.8155 10.1018C15.7576 10.0439 15.6791 10.0113 15.5972 10.0112H13.2889V8.5551C13.2889 7.85465 13.4558 7.49926 14.368 7.49926H15.6914C15.7733 7.49917 15.8518 7.46659 15.9097 7.40867C15.9675 7.35075 16 7.27222 16 7.19035V4.87757C16 4.79575 15.9676 4.71728 15.9098 4.65936C15.852 4.60145 15.7736 4.56883 15.6918 4.56866Z" fill="white"/>
</g>
</g>
<defs>
<clipPath id="clip0_0_205">
<rect width="24" height="24" fill="white"/>
</clipPath>
</defs>
</svg>
