<svg width="24" height="24" viewBox="0 0 24 24" fill="none" xmlns="http://www.w3.org/2000/svg">
<g clip-path="url(#clip0_0_204)">
<path d="M21 6.65663C20.326 6.94317 19.6109 7.13137 18.8786 7.21496C19.6508 6.77262 20.2294 6.07732 20.5071 5.25787C19.78 5.67065 18.9841 5.96045 18.1543 6.11456C17.6476 5.59822 16.9906 5.23955 16.2684 5.08506C15.5462 4.93058 14.7921 4.98742 14.1041 5.2482C13.4161 5.50898 12.8257 5.96167 12.4097 6.54756C11.9937 7.13345 11.7711 7.82551 11.7709 8.53397C11.7711 8.80493 11.8027 9.07503 11.865 9.33933C10.3963 9.26942 8.95946 8.90452 7.64768 8.26835C6.3359 7.63218 5.17857 6.73896 4.25084 5.6467C3.77831 6.4245 3.63335 7.34552 3.84548 8.22208C4.0576 9.09865 4.61086 9.8648 5.39252 10.3644C4.80692 10.3476 4.23423 10.1956 3.72319 9.92129V9.96449C3.72364 10.7809 4.01844 11.5722 4.55779 12.2046C5.09715 12.8371 5.84799 13.2719 6.68347 13.4356C6.36635 13.5154 6.03979 13.5558 5.71188 13.5556C5.47778 13.5559 5.24417 13.5351 5.01414 13.4935C5.25104 14.1957 5.71072 14.8096 6.32918 15.2499C6.94764 15.6901 7.69411 15.9348 8.46464 15.9499C7.15516 16.9306 5.53966 17.4621 3.87709 17.4591C3.58404 17.459 3.29123 17.4433 3 17.4122C4.68895 18.451 6.65464 19.0022 8.66212 19C15.4505 19 19.1664 13.6143 19.1664 8.94496L19.1552 8.48707C19.8798 7.98806 20.5047 7.36828 21 6.65737V6.65663Z" fill="white"/>
</g>
<defs>
<clipPath id="clip0_0_204">
<rect width="24" height="24" fill="white"/>
</clipPath>
</defs>
</svg>
