<svg width="24" height="24" viewBox="0 0 24 24" fill="none" xmlns="http://www.w3.org/2000/svg"><g clip-path="url(#clip0_0_205)"><mask id="mask0_0_205" style="mask-type:luminance" maskUnits="userSpaceOnUse" x="0" y="0" width="24" height="24"><path d="M24 0H0v24h24V0z" fill="#fff"/></mask><g mask="url(#mask0_0_205)"><path d="M15.692 4.569l-1.965-.004c-2.206 0-3.633 1.464-3.633 3.728v1.72H8.12a.31.31 0 00-.308.308v2.49a.309.309 0 00.308.31h1.976v6.283a.309.309 0 00.308.309h2.577a.31.31 0 00.31-.309v-6.285h2.307a.31.31 0 00.31-.309v-2.49a.31.31 0 00-.31-.309H13.29V8.555c0-.7.167-1.056 1.079-1.056h1.323A.31.31 0 0016 7.19V4.878a.309.309 0 00-.308-.31z" fill="#fff"/></g></g><defs><clipPath id="clip0_0_205"><path fill="#fff" d="M0 0h24v24H0z"/></clipPath></defs></svg>