<svg width="24" height="24" viewBox="0 0 24 24" fill="none" xmlns="http://www.w3.org/2000/svg"><path d="M6.273 17.728a3.103 3.103 0 010-4.385L9.1 10.516 7.758 9.172 4.929 12a5.002 5.002 0 000 7.071 5.002 5.002 0 007.071 0l2.829-2.828-1.344-1.344-2.828 2.829a3.103 3.103 0 01-4.384 0zm3.606-2.193l5.657-5.656-1.415-1.415-5.656 5.657 1.414 1.415zM12 4.93L9.172 7.757l1.343 1.344 2.829-2.829a3.103 3.103 0 014.384 0 3.103 3.103 0 010 4.384l-2.829 2.829 1.344 1.343L19.07 12a5.002 5.002 0 000-7.071 5.002 5.002 0 00-7.07 0z" fill="#fff"/></svg>