<svg width="24" height="24" viewBox="0 0 24 24" fill="none" xmlns="http://www.w3.org/2000/svg"><g clip-path="url(#clip0_0_204)"><path d="M21 6.657a7.638 7.638 0 01-2.121.558 3.594 3.594 0 001.628-1.957 7.564 7.564 0 01-2.353.857 3.735 3.735 0 00-1.886-1.03 3.847 3.847 0 00-2.164.163 3.668 3.668 0 00-1.694 1.3 3.43 3.43 0 00-.545 2.791 10.853 10.853 0 01-4.217-1.07A10.414 10.414 0 014.25 5.646a3.405 3.405 0 00-.406 2.575 3.539 3.539 0 001.548 2.142 3.76 3.76 0 01-1.67-.443v.043c0 .817.295 1.608.835 2.24a3.734 3.734 0 002.125 1.232 3.973 3.973 0 01-1.669.057A3.557 3.557 0 006.33 15.25c.619.44 1.365.685 2.136.7a7.637 7.637 0 01-4.588 1.51 8.559 8.559 0 01-.877-.048A10.795 10.795 0 008.662 19c6.788 0 10.504-5.386 10.504-10.055l-.01-.458A7.273 7.273 0 0021 6.657z" fill="#fff"/></g><defs><clipPath id="clip0_0_204"><path fill="#fff" d="M0 0h24v24H0z"/></clipPath></defs></svg>