<svg width="57" height="36" viewBox="0 0 57 36" fill="none" xmlns="http://www.w3.org/2000/svg"><g filter="url(#filter0_b_0_230)"><path d="M-685.343 2.343A8 8 0 01-679.686 0H49a8 8 0 018 8v28.686a8 8 0 01-2.343 5.657L19.343 77.657A8 8 0 0113.686 80H-715a8 8 0 01-8-8V43.314a8 8 0 012.343-5.657l35.314-35.314z" fill="#0C0333" fill-opacity=".5"/><path d="M-722.5 72V43.314a7.5 7.5 0 012.197-5.304l35.313-35.313A7.503 7.503 0 01-679.686.5H49A7.5 7.5 0 0156.5 8v28.686a7.5 7.5 0 01-2.197 5.304L18.99 77.303a7.5 7.5 0 01-5.304 2.197H-715a7.5 7.5 0 01-7.5-7.5z" stroke="url(#paint0_linear_0_230)"/></g><defs><linearGradient id="paint0_linear_0_230" x1="-376.875" y1="-16.667" x2="-392.418" y2="89.437" gradientUnits="userSpaceOnUse"><stop stop-color="#C14FCB"/><stop offset="1" stop-color="#0667D9"/></linearGradient><filter id="filter0_b_0_230" x="-743" y="-20" width="820" height="120" filterUnits="userSpaceOnUse" color-interpolation-filters="sRGB"><feFlood flood-opacity="0" result="BackgroundImageFix"/><feGaussianBlur in="BackgroundImageFix" stdDeviation="10"/><feComposite in2="SourceAlpha" operator="in" result="effect1_backgroundBlur_0_230"/><feBlend in="SourceGraphic" in2="effect1_backgroundBlur_0_230" result="shape"/></filter></defs></svg>