<svg width="66" height="72" viewBox="0 0 66 72" fill="none" xmlns="http://www.w3.org/2000/svg"><g filter="url(#filter0_b_0_230)"><path d="M-676.343-5.657A8 8 0 01-670.686-8H58a8 8 0 018 8v28.686a8 8 0 01-2.343 5.657L28.343 69.657A8 8 0 0122.686 72H-706a8 8 0 01-8-8V35.314a8 8 0 012.343-5.657l35.314-35.314z" fill="#0C0333" fill-opacity=".5"/><path d="M-713.5 64V35.314a7.5 7.5 0 012.197-5.304l35.313-35.313a7.503 7.503 0 015.304-2.197H58A7.5 7.5 0 0165.5 0v28.686a7.5 7.5 0 01-2.197 5.304L27.99 69.303a7.5 7.5 0 01-5.304 2.197H-706a7.5 7.5 0 01-7.5-7.5z" stroke="url(#paint0_linear_0_230)"/></g><defs><linearGradient id="paint0_linear_0_230" x1="-367.875" y1="-24.667" x2="-383.418" y2="81.437" gradientUnits="userSpaceOnUse"><stop stop-color="#C14FCB"/><stop offset="1" stop-color="#0667D9"/></linearGradient><filter id="filter0_b_0_230" x="-734" y="-28" width="820" height="120" filterUnits="userSpaceOnUse" color-interpolation-filters="sRGB"><feFlood flood-opacity="0" result="BackgroundImageFix"/><feGaussianBlur in="BackgroundImageFix" stdDeviation="10"/><feComposite in2="SourceAlpha" operator="in" result="effect1_backgroundBlur_0_230"/><feBlend in="SourceGraphic" in2="effect1_backgroundBlur_0_230" result="shape"/></filter></defs></svg>