<svg width="94" height="51" viewBox="0 0 94 51" fill="none" xmlns="http://www.w3.org/2000/svg"><g filter="url(#filter0_b_0_230)"><path d="M37.657-26.657A8 8 0 0143.314-29H772a8 8 0 018 8V7.686a8 8 0 01-2.343 5.657l-35.314 35.314A8 8 0 01736.686 51H8a8 8 0 01-8-8V14.314a8 8 0 012.343-5.657l35.314-35.314z" fill="#0C0333" fill-opacity=".5"/><path d="M.5 43V14.314A7.5 7.5 0 012.697 9.01L38.01-26.303a7.5 7.5 0 015.304-2.197H772a7.5 7.5 0 017.5 7.5V7.686a7.5 7.5 0 01-2.197 5.304L741.99 48.303a7.503 7.503 0 01-5.304 2.197H8A7.5 7.5 0 01.5 43z" stroke="url(#paint0_linear_0_230)"/></g><defs><linearGradient id="paint0_linear_0_230" x1="346.125" y1="-45.667" x2="330.582" y2="60.437" gradientUnits="userSpaceOnUse"><stop stop-color="#C14FCB"/><stop offset="1" stop-color="#0667D9"/></linearGradient><filter id="filter0_b_0_230" x="-20" y="-49" width="820" height="120" filterUnits="userSpaceOnUse" color-interpolation-filters="sRGB"><feFlood flood-opacity="0" result="BackgroundImageFix"/><feGaussianBlur in="BackgroundImageFix" stdDeviation="10"/><feComposite in2="SourceAlpha" operator="in" result="effect1_backgroundBlur_0_230"/><feBlend in="SourceGraphic" in2="effect1_backgroundBlur_0_230" result="shape"/></filter></defs></svg>